<svg width="35" height="45" viewBox="0 0 35 45" fill="none" xmlns="http://www.w3.org/2000/svg">
<g id="Vector">
<path d="M12.1868 6.61111V15.8333Z" fill="white"/>
<path d="M13.9368 15.8333H10.4368C9.47027 15.8333 8.68677 16.8656 8.68677 18.1389V27.3611C8.68677 28.6344 9.47027 29.6667 10.4368 29.6667H13.9368C14.9033 29.6667 15.6868 28.6344 15.6868 27.3611V18.1389C15.6868 16.8656 14.9033 15.8333 13.9368 15.8333Z" fill="white"/>
<path d="M12.1868 29.6667V34.2778Z" fill="white"/>
<path d="M26.1868 2V6.61111Z" fill="white"/>
<path d="M27.9368 6.61111H24.4368C23.4703 6.61111 22.6868 7.64334 22.6868 8.91667V22.75C22.6868 24.0233 23.4703 25.0556 24.4368 25.0556H27.9368C28.9033 25.0556 29.6868 24.0233 29.6868 22.75V8.91667C29.6868 7.64334 28.9033 6.61111 27.9368 6.61111Z" fill="white"/>
<path d="M26.1868 25.0556V31.9722Z" fill="white"/>
<path d="M1.68677 2V38.8889C1.68677 40.1118 2.05552 41.2847 2.71189 42.1494C3.36827 43.0142 4.25851 43.5 5.18677 43.5H33.1868" fill="white"/>
<path d="M12.1868 6.61111V15.8333M12.1868 29.6667V34.2778M26.1868 2V6.61111M26.1868 25.0556V31.9722M1.68677 2V38.8889C1.68677 40.1118 2.05552 41.2847 2.71189 42.1494C3.36827 43.0142 4.25851 43.5 5.18677 43.5H33.1868M10.4368 15.8333H13.9368C14.9033 15.8333 15.6868 16.8656 15.6868 18.1389V27.3611C15.6868 28.6344 14.9033 29.6667 13.9368 29.6667H10.4368C9.47027 29.6667 8.68677 28.6344 8.68677 27.3611V18.1389C8.68677 16.8656 9.47027 15.8333 10.4368 15.8333ZM24.4368 6.61111H27.9368C28.9033 6.61111 29.6868 7.64334 29.6868 8.91667V22.75C29.6868 24.0233 28.9033 25.0556 27.9368 25.0556H24.4368C23.4703 25.0556 22.6868 24.0233 22.6868 22.75V8.91667C22.6868 7.64334 23.4703 6.61111 24.4368 6.61111Z" stroke="black" stroke-width="3" stroke-linecap="round" stroke-linejoin="round"/>
</g>
</svg>
