<svg width="39" height="36" viewBox="0 0 39 36" fill="none" xmlns="http://www.w3.org/2000/svg">
<g id="Vector">
<path d="M19.5 19.75H19.5175Z" fill="white"/>
<path d="M26.5 9.25V5.75C26.5 4.82174 26.1312 3.9315 25.4749 3.27513C24.8185 2.61875 23.9283 2.25 23 2.25H16C15.0717 2.25 14.1815 2.61875 13.5251 3.27513C12.8688 3.9315 12.5 4.82174 12.5 5.75V9.25" fill="white"/>
<path d="M37 21.5C31.8074 24.9282 25.7222 26.7558 19.5 26.7558C13.2778 26.7558 7.19261 24.9282 2 21.5" fill="white"/>
<path d="M33.5 9.25H5.5C3.567 9.25 2 10.817 2 12.75V30.25C2 32.183 3.567 33.75 5.5 33.75H33.5C35.433 33.75 37 32.183 37 30.25V12.75C37 10.817 35.433 9.25 33.5 9.25Z" fill="white"/>
<path d="M19.5 19.75H19.5175M26.5 9.25V5.75C26.5 4.82174 26.1312 3.9315 25.4749 3.27513C24.8185 2.61875 23.9283 2.25 23 2.25H16C15.0717 2.25 14.1815 2.61875 13.5251 3.27513C12.8688 3.9315 12.5 4.82174 12.5 5.75V9.25M37 21.5C31.8074 24.9282 25.7222 26.7558 19.5 26.7558C13.2778 26.7558 7.19261 24.9282 2 21.5M5.5 9.25H33.5C35.433 9.25 37 10.817 37 12.75V30.25C37 32.183 35.433 33.75 33.5 33.75H5.5C3.567 33.75 2 32.183 2 30.25V12.75C2 10.817 3.567 9.25 5.5 9.25Z" stroke="black" stroke-width="3" stroke-linecap="round" stroke-linejoin="round"/>
</g>
</svg>
