<svg width="35" height="37" viewBox="0 0 35 37" fill="none" xmlns="http://www.w3.org/2000/svg">
<g id="Vector">
<path d="M15.8132 7.25C21.1356 7.38711 26.3376 5.65313 30.5132 2.35C30.7732 2.155 31.0824 2.03626 31.4061 2.00707C31.7298 1.97789 32.0552 2.03941 32.3459 2.18475C32.6365 2.3301 32.881 2.55351 33.0519 2.82997C33.2227 3.10643 33.3132 3.425 33.3132 3.75V24.75C33.3132 25.075 33.2227 25.3936 33.0519 25.67C32.881 25.9465 32.6365 26.1699 32.3459 26.3152C32.0552 26.4606 31.7298 26.5221 31.4061 26.4929C31.0824 26.4637 30.7732 26.345 30.5132 26.15C26.3376 22.8469 21.1356 21.1129 15.8132 21.25H5.31323C4.38497 21.25 3.49474 20.8812 2.83836 20.2249C2.18198 19.5685 1.81323 18.6783 1.81323 17.75V10.75C1.81323 9.82174 2.18198 8.9315 2.83836 8.27513C3.49474 7.61875 4.38497 7.25 5.31323 7.25H15.8132Z" fill="white"/>
<path d="M7.06323 21.25C7.06323 25.7938 8.53697 30.215 11.2632 33.85C11.8202 34.5926 12.6493 35.0835 13.5683 35.2148C14.4872 35.3461 15.4206 35.107 16.1632 34.55C16.9058 33.993 17.3968 33.1639 17.5281 32.245C17.6593 31.326 17.4202 30.3926 16.8632 29.65C15.0457 27.2267 14.0632 24.2792 14.0632 21.25" fill="white"/>
<path d="M10.5632 7.25V21.25Z" fill="white"/>
<path d="M7.06323 21.25C7.06323 25.7938 8.53697 30.215 11.2632 33.85C11.8202 34.5926 12.6493 35.0835 13.5683 35.2148C14.4872 35.3461 15.4206 35.107 16.1632 34.55C16.9058 33.993 17.3968 33.1639 17.5281 32.245C17.6593 31.326 17.4202 30.3926 16.8632 29.65C15.0457 27.2267 14.0632 24.2792 14.0632 21.25M10.5632 7.25V21.25M15.8132 7.25C21.1356 7.38711 26.3376 5.65313 30.5132 2.35C30.7732 2.155 31.0824 2.03626 31.4061 2.00707C31.7298 1.97789 32.0552 2.03941 32.3459 2.18475C32.6365 2.3301 32.881 2.55351 33.0519 2.82997C33.2227 3.10643 33.3132 3.425 33.3132 3.75V24.75C33.3132 25.075 33.2227 25.3936 33.0519 25.67C32.881 25.9465 32.6365 26.1699 32.3459 26.3152C32.0552 26.4606 31.7298 26.5221 31.4061 26.4929C31.0824 26.4637 30.7732 26.345 30.5132 26.15C26.3376 22.8469 21.1356 21.1129 15.8132 21.25H5.31323C4.38497 21.25 3.49474 20.8812 2.83836 20.2249C2.18198 19.5685 1.81323 18.6783 1.81323 17.75V10.75C1.81323 9.82174 2.18198 8.9315 2.83836 8.27513C3.49474 7.61875 4.38497 7.25 5.31323 7.25H15.8132Z" stroke="black" stroke-width="3" stroke-linecap="round" stroke-linejoin="round"/>
</g>
</svg>
