<svg width="39" height="39" viewBox="0 0 39 39" fill="none" xmlns="http://www.w3.org/2000/svg">
<g id="Vector">
<path d="M17.8132 16.7225L10.8132 4.595Z" fill="white"/>
<path d="M17.8132 22.7775L10.8132 34.905Z" fill="white"/>
<path d="M19.5632 37.25V33.75Z" fill="white"/>
<path d="M19.5632 2.25V5.75Z" fill="white"/>
<path d="M23.0632 19.75H37.0632Z" fill="white"/>
<path d="M28.3132 34.905L26.5632 31.8775Z" fill="white"/>
<path d="M28.3132 4.595L26.5632 7.6225Z" fill="white"/>
<path d="M2.06323 19.75H5.56323Z" fill="white"/>
<path d="M34.7182 28.5L31.6907 26.75Z" fill="white"/>
<path d="M34.7182 11L31.6907 12.75Z" fill="white"/>
<path d="M4.40823 28.5L7.43573 26.75Z" fill="white"/>
<path d="M4.40823 11L7.43573 12.75Z" fill="white"/>
<path d="M19.5632 23.25C21.4962 23.25 23.0632 21.683 23.0632 19.75C23.0632 17.817 21.4962 16.25 19.5632 16.25C17.6302 16.25 16.0632 17.817 16.0632 19.75C16.0632 21.683 17.6302 23.25 19.5632 23.25Z" fill="white"/>
<path d="M19.5632 33.75C27.2952 33.75 33.5632 27.482 33.5632 19.75C33.5632 12.018 27.2952 5.75 19.5632 5.75C11.8312 5.75 5.56323 12.018 5.56323 19.75C5.56323 27.482 11.8312 33.75 19.5632 33.75Z" fill="white"/>
<path d="M17.8132 16.7225L10.8132 4.595M17.8132 22.7775L10.8132 34.905M19.5632 37.25V33.75M19.5632 33.75C27.2952 33.75 33.5632 27.482 33.5632 19.75C33.5632 12.018 27.2952 5.75 19.5632 5.75M19.5632 33.75C11.8312 33.75 5.56323 27.482 5.56323 19.75M19.5632 2.25V5.75M19.5632 5.75C11.8312 5.75 5.56323 12.018 5.56323 19.75M23.0632 19.75H37.0632M23.0632 19.75C23.0632 21.683 21.4962 23.25 19.5632 23.25C17.6302 23.25 16.0632 21.683 16.0632 19.75C16.0632 17.817 17.6302 16.25 19.5632 16.25C21.4962 16.25 23.0632 17.817 23.0632 19.75ZM28.3132 34.905L26.5632 31.8775M28.3132 4.595L26.5632 7.6225M2.06323 19.75H5.56323M34.7182 28.5L31.6907 26.75M34.7182 11L31.6907 12.75M4.40823 28.5L7.43573 26.75M4.40823 11L7.43573 12.75" stroke="black" stroke-width="3" stroke-linecap="round" stroke-linejoin="round"/>
</g>
</svg>
