<svg width="39" height="37" viewBox="0 0 39 37" fill="none" xmlns="http://www.w3.org/2000/svg">
<g id="Vector">
<path d="M17.8132 2.25V5.75Z" fill="white"/>
<path d="M7.31323 2.25V5.75Z" fill="white"/>
<path d="M7.31323 4H5.56323C4.63497 4 3.74474 4.36875 3.08836 5.02513C2.43198 5.6815 2.06323 6.57174 2.06323 7.5V14.5C2.06323 17.2848 3.16948 19.9555 5.13861 21.9246C7.10774 23.8938 9.77846 25 12.5632 25C15.348 25 18.0187 23.8938 19.9879 21.9246C21.957 19.9555 23.0632 17.2848 23.0632 14.5V7.5C23.0632 6.57174 22.6945 5.6815 22.0381 5.02513C21.3817 4.36875 20.4915 4 19.5632 4H17.8132" fill="white"/>
<path d="M12.5632 25C12.5632 27.7848 13.6695 30.4555 15.6386 32.4246C17.6077 34.3938 20.2785 35.5 23.0632 35.5C25.848 35.5 28.5187 34.3938 30.4879 32.4246C32.457 30.4555 33.5632 27.7848 33.5632 25V19.75" fill="white"/>
<path d="M33.5632 19.75C35.4962 19.75 37.0632 18.183 37.0632 16.25C37.0632 14.317 35.4962 12.75 33.5632 12.75C31.6302 12.75 30.0632 14.317 30.0632 16.25C30.0632 18.183 31.6302 19.75 33.5632 19.75Z" fill="white"/>
<path d="M17.8132 2.25V5.75M7.31323 2.25V5.75M7.31323 4H5.56323C4.63497 4 3.74474 4.36875 3.08836 5.02513C2.43198 5.6815 2.06323 6.57174 2.06323 7.5V14.5C2.06323 17.2848 3.16948 19.9555 5.13861 21.9246C7.10774 23.8938 9.77846 25 12.5632 25M12.5632 25C15.348 25 18.0187 23.8938 19.9879 21.9246C21.957 19.9555 23.0632 17.2848 23.0632 14.5V7.5C23.0632 6.57174 22.6945 5.6815 22.0381 5.02513C21.3817 4.36875 20.4915 4 19.5632 4H17.8132M12.5632 25C12.5632 27.7848 13.6695 30.4555 15.6386 32.4246C17.6077 34.3938 20.2785 35.5 23.0632 35.5C25.848 35.5 28.5187 34.3938 30.4879 32.4246C32.457 30.4555 33.5632 27.7848 33.5632 25V19.75M33.5632 19.75C35.4962 19.75 37.0632 18.183 37.0632 16.25C37.0632 14.317 35.4962 12.75 33.5632 12.75C31.6302 12.75 30.0632 14.317 30.0632 16.25C30.0632 18.183 31.6302 19.75 33.5632 19.75Z" stroke="black" stroke-width="3" stroke-linecap="round" stroke-linejoin="round"/>
</g>
</svg>
