<svg width="39" height="35" viewBox="0 0 39 35" fill="none" xmlns="http://www.w3.org/2000/svg">
<g id="Vector">
<path d="M26.5632 24.75L31.8132 10.75L37.0632 24.75C35.5407 25.8875 33.7032 26.5 31.8132 26.5C29.9232 26.5 28.0857 25.8875 26.5632 24.75Z" fill="white"/>
<path d="M2.06323 24.75L7.31323 10.75L12.5632 24.75C11.0407 25.8875 9.20323 26.5 7.31323 26.5C5.42323 26.5 3.58573 25.8875 2.06323 24.75Z" fill="white"/>
<path d="M10.8132 33.5H28.3132Z" fill="white"/>
<path d="M19.5632 2V33.5Z" fill="white"/>
<path d="M3.81323 9H7.31323C10.8132 9 16.0632 7.25 19.5632 5.5C23.0632 7.25 28.3132 9 31.8132 9H35.3132" fill="white"/>
<path d="M10.8132 33.5H28.3132M19.5632 2V33.5M3.81323 9H7.31323C10.8132 9 16.0632 7.25 19.5632 5.5C23.0632 7.25 28.3132 9 31.8132 9H35.3132M26.5632 24.75L31.8132 10.75L37.0632 24.75C35.5407 25.8875 33.7032 26.5 31.8132 26.5C29.9232 26.5 28.0857 25.8875 26.5632 24.75ZM2.06323 24.75L7.31323 10.75L12.5632 24.75C11.0407 25.8875 9.20323 26.5 7.31323 26.5C5.42323 26.5 3.58573 25.8875 2.06323 24.75Z" stroke="black" stroke-width="3" stroke-linecap="round" stroke-linejoin="round"/>
</g>
</svg>
