<svg width="35" height="39" viewBox="0 0 35 39" fill="none" xmlns="http://www.w3.org/2000/svg">
<g id="Vector">
<path d="M14.0632 30.2499V17.9999Z" fill="white"/>
<path d="M16.0232 2.59641C16.5034 2.36315 17.0305 2.24283 17.5644 2.24465C18.0982 2.24647 18.6246 2.37038 19.1032 2.60691L32.8687 9.33916C33.7017 9.74691 33.4112 10.9999 32.4837 10.9999H2.64267C1.71517 10.9999 1.42642 9.74691 2.25767 9.33916L16.0232 2.59641Z" fill="white"/>
<path d="M21.0632 30.2499V17.9999Z" fill="white"/>
<path d="M28.0632 30.2499V17.9999Z" fill="white"/>
<path d="M1.81317 37.2499H33.3132Z" fill="white"/>
<path d="M7.06317 30.2499V17.9999Z" fill="white"/>
<path d="M14.0632 30.2499V17.9999M21.0632 30.2499V17.9999M28.0632 30.2499V17.9999M1.81317 37.2499H33.3132M7.06317 30.2499V17.9999M16.0232 2.59641C16.5034 2.36315 17.0305 2.24283 17.5644 2.24465C18.0982 2.24647 18.6246 2.37038 19.1032 2.60691L32.8687 9.33916C33.7017 9.74691 33.4112 10.9999 32.4837 10.9999H2.64267C1.71517 10.9999 1.42642 9.74691 2.25767 9.33916L16.0232 2.59641Z" stroke="black" stroke-width="3" stroke-linecap="round" stroke-linejoin="round"/>
</g>
</svg>
