<svg width="37" height="30" viewBox="0 0 37 30" fill="none" xmlns="http://www.w3.org/2000/svg">
<g id="Vector">
<path d="M29.0632 1.5C29.9915 1.5 30.8817 1.86875 31.5381 2.52513C32.1945 3.1815 32.5632 4.07174 32.5632 5V19.9205C32.563 20.4655 32.69 21.003 32.9342 21.4902L34.8032 25.2125C34.9381 25.4802 35.002 25.7781 34.9887 26.0776C34.9754 26.3771 34.8854 26.6682 34.7273 26.9229C34.5692 27.1777 34.3483 27.3875 34.0858 27.5323C33.8233 27.6771 33.528 27.7521 33.2282 27.75H3.89821C3.59841 27.7521 3.30311 27.6771 3.04061 27.5323C2.77811 27.3875 2.55722 27.1777 2.39912 26.9229C2.24101 26.6682 2.151 26.3771 2.13771 26.0776C2.12442 25.7781 2.18829 25.4802 2.32321 25.2125L4.19221 21.4902C4.4364 21.003 4.56344 20.4655 4.56321 19.9205V5C4.56321 4.07174 4.93196 3.1815 5.58833 2.52513C6.24471 1.86875 7.13495 1.5 8.06321 1.5H29.0632Z" fill="white"/>
<path d="M32.6577 20.7273H4.46871Z" fill="white"/>
<path d="M32.6577 20.7273H4.46871M29.0632 1.5C29.9915 1.5 30.8817 1.86875 31.5381 2.52513C32.1945 3.1815 32.5632 4.07174 32.5632 5V19.9205C32.563 20.4655 32.69 21.003 32.9342 21.4902L34.8032 25.2125C34.9381 25.4802 35.002 25.7781 34.9887 26.0776C34.9754 26.3771 34.8854 26.6682 34.7273 26.9229C34.5692 27.1777 34.3483 27.3875 34.0858 27.5323C33.8233 27.6771 33.528 27.7521 33.2282 27.75H3.89821C3.59841 27.7521 3.30311 27.6771 3.04061 27.5323C2.77811 27.3875 2.55722 27.1777 2.39912 26.9229C2.24101 26.6682 2.151 26.3771 2.13771 26.0776C2.12442 25.7781 2.18829 25.4802 2.32321 25.2125L4.19221 21.4902C4.4364 21.003 4.56344 20.4655 4.56321 19.9205V5C4.56321 4.07174 4.93196 3.1815 5.58833 2.52513C6.24471 1.86875 7.13495 1.5 8.06321 1.5H29.0632Z" stroke="black" stroke-width="3" stroke-linecap="round" stroke-linejoin="round"/>
</g>
</svg>
